<?xml version="1.0" standalone="no"?>
<!DOCTYPE svg PUBLIC "-//W3C//DTD SVG 20010904//EN"
 "http://www.w3.org/TR/2001/REC-SVG-20010904/DTD/svg10.dtd">
<svg version="1.0" xmlns="http://www.w3.org/2000/svg"
 width="512.000000pt" height="512.000000pt" viewBox="0 0 512.000000 512.000000"
 preserveAspectRatio="xMidYMid meet">

<g transform="translate(0.000000,512.000000) scale(0.100000,-0.100000)"
fill="#000000" stroke="none">
<path d="M585 4455 l-25 -24 0 -1656 0 -1655 -200 0 -200 0 0 -240 0 -240
2400 0 2400 0 0 240 0 240 -240 0 -240 0 0 1575 0 1576 -25 24 -24 25 -391 0
-391 0 -24 -25 -25 -24 0 -296 0 -295 -240 0 -240 0 0 295 0 296 -25 24 -24
25 -311 0 -311 0 -24 -25 c-25 -24 -25 -24 -25 -240 l0 -215 -255 0 -256 0
-24 -25 c-24 -23 -25 -29 -25 -160 l0 -135 -240 0 -240 0 0 455 0 456 -25 24
-24 25 -351 0 -351 0 -24 -25z m615 -255 l0 -120 -240 0 -240 0 0 120 0 120
240 0 240 0 0 -120z m1200 -1800 l0 -1280 -200 0 -200 0 0 1280 0 1280 200 0
200 0 0 -1280z m-1200 -40 l0 -1240 -240 0 -240 0 0 1240 0 1240 240 0 240 0
0 -1240z m2400 -40 l0 -1200 -240 0 -240 0 0 1200 0 1200 240 0 240 0 0 -1200z
m-1920 -80 l0 -480 -80 0 -80 0 0 480 0 480 80 0 80 0 0 -480z"/>
</g>
</svg>
